<svg width="24" height="24" viewBox="0 0 24 24" fill="none" xmlns="http://www.w3.org/2000/svg">
<path d="M11.9997 0.377124C10.4911 0.322093 9.32287 1.36441 8.05785 2.01934C6.33731 3.03925 4.56557 3.98012 2.87929 5.05291C1.77632 5.94939 1.26956 7.39197 1.38538 8.78505C1.39181 11.255 1.37259 13.7255 1.39509 16.195C1.53792 17.6904 2.57479 18.9594 3.90904 19.585C6.05095 20.8142 8.18029 22.0664 10.33 23.2814C11.6966 23.9045 13.3144 23.6425 14.5233 22.7994C16.6589 21.5589 18.8078 20.3403 20.935 19.086C22.1587 18.2147 22.7396 16.6824 22.614 15.2141C22.6076 12.7441 22.6268 10.2737 22.6043 7.80409C22.4613 6.30887 21.4246 5.03955 20.0902 4.41428C17.9483 3.18522 15.8186 1.93389 13.6689 0.718796C13.1486 0.477109 12.5707 0.378718 11.9997 0.377077M10.6546 6.59692H13.3453V17.4025H10.6546V6.59692ZM14.0405 8.94883H16.7298V17.4025H14.0405V8.94883ZM7.26928 13.3588H9.95943V17.4025H7.26928V13.3588Z" fill="#D9D9D9"/>
</svg>
