<svg width="24" height="24" viewBox="0 0 24 24" fill="none" xmlns="http://www.w3.org/2000/svg">
<g clip-path="url(#clip0_203_198)">
<path d="M18.75 12C18.75 10.875 17.85 9.9 16.725 9.75C15.9 7.95 14.1 6.75 12 6.75C11.85 6.75 11.625 6.75 11.475 6.825C11.025 6.3 10.425 6 9.75 6C8.475 6 7.5 6.975 7.5 8.25C7.5 8.55 7.575 8.775 7.65 9.075C7.05 9.9 6.75 10.875 6.75 12C6.75 13.6875 7.05 14.1 7.65 14.925C7.575 15.225 7.5 15.45 7.5 15.75C7.5 17.025 8.475 18 9.75 18C10.425 18 11.025 17.7 11.475 17.175C11.625 17.175 11.85 17.25 12 17.25C14.1 17.25 15.9 15.975 16.725 14.25C17.85 14.1 18.75 13.125 18.75 12ZM9.75 7.5C10.2 7.5 10.5 7.8 10.5 8.25C10.5 8.7 10.2 9 9.75 9C9.3 9 9 8.7 9 8.25C9 7.8 9.3 7.5 9.75 7.5ZM9.75 16.5C9.3 16.5 9 16.2 9 15.75C9 15.3 9.3 15 9.75 15C10.2 15 10.5 15.3 10.5 15.75C10.5 16.2 10.2 16.5 9.75 16.5ZM12 15.75C12 14.475 11.025 13.5 9.75 13.5C9.375 13.5 9 13.575 8.7 13.8C8.4 13.275 8.25 12.675 8.25 12C8.25 10.9875 8.4 10.725 8.7 10.2C9 10.425 9.375 10.5 9.75 10.5C11.025 10.5 12 9.525 12 8.25C13.425 8.25 14.55 9 15.225 10.125C14.625 10.575 14.25 11.25 14.25 12C14.25 12.75 14.625 13.425 15.225 13.875C14.55 15 13.425 15.75 12 15.75ZM16.5 12.75C16.05 12.75 15.75 12.45 15.75 12C15.75 11.55 16.05 11.25 16.5 11.25C16.95 11.25 17.25 11.55 17.25 12C17.25 12.45 16.95 12.75 16.5 12.75Z" fill="#D9D9D9"/>
<path d="M12 23.25C11.85 23.25 11.775 23.25 11.625 23.175L2.625 17.925C2.4 17.775 2.25 17.55 2.25 17.25V6.75002C2.25 6.45002 2.4 6.22502 2.625 6.07502L11.625 0.825024C11.85 0.675024 12.15 0.675024 12.375 0.825024L21.375 6.07502L20.625 7.35002L12 2.40002L3.75 7.20002V16.875L12 21.675L20.25 16.875V11.25H21.75V17.25C21.75 17.55 21.6 17.775 21.375 17.925L12.375 23.175C12.225 23.25 12.15 23.25 12 23.25Z" fill="#D9D9D9"/>
</g>
<defs>
<clipPath id="clip0_203_198">
<rect width="24" height="24" fill="white"/>
</clipPath>
</defs>
</svg>
