<svg width="19" height="19" viewBox="0 0 19 19" fill="none" xmlns="http://www.w3.org/2000/svg">
<g id="cib:linkedin" clip-path="url(#clip0_251_343)">
<path id="Vector" d="M15.6681 15.4088H13.0058V11.2311C13.0058 10.2349 12.985 8.95466 11.6136 8.95466C10.2254 8.95466 10.0139 10.0352 10.0139 11.1574V15.4082H7.34821V6.81829H9.90871V7.98997H9.94302C10.3008 7.31329 11.171 6.60172 12.4692 6.60172C15.1698 6.60172 15.671 8.37979 15.671 10.6917V15.4082L15.6681 15.4088ZM4.33658 5.64435C4.13311 5.64442 3.93163 5.60435 3.74367 5.52644C3.55571 5.44852 3.38496 5.33429 3.24122 5.19029C3.09747 5.04628 2.98355 4.87533 2.90598 4.68723C2.8284 4.49913 2.7887 4.29757 2.78915 4.0941C2.78948 3.78785 2.88061 3.48857 3.05102 3.23411C3.22144 2.97964 3.46347 2.78142 3.74653 2.66451C4.02959 2.54759 4.34095 2.51723 4.64127 2.57727C4.94158 2.6373 5.21734 2.78503 5.4337 3.00178C5.65006 3.21853 5.79729 3.49457 5.85678 3.79499C5.91626 4.09541 5.88534 4.40672 5.76791 4.68956C5.65048 4.97241 5.45182 5.21408 5.19705 5.38403C4.94228 5.55398 4.64284 5.64457 4.33658 5.64435ZM5.67196 15.4088H3.00065V6.81885H5.67196V15.4088ZM17.0046 0.0688477H1.6619C0.928959 0.0688477 0.334396 0.648785 0.334396 1.36654V16.7717C0.334396 17.4895 0.928959 18.0694 1.6619 18.0694H17.0018C17.7336 18.0694 18.3344 17.4895 18.3344 16.7717V1.36654C18.3344 0.648785 17.7336 0.0688477 17.0018 0.0688477H17.0046Z" fill="black"/>
</g>
<defs>
<clipPath id="clip0_251_343">
<rect width="18" height="18" fill="white" transform="translate(0.334396 0.0688477)"/>
</clipPath>
</defs>
</svg>
