<svg width="27" height="30" viewBox="0 0 27 30" fill="none" xmlns="http://www.w3.org/2000/svg">
<g filter="url(#filter0_d_203_206)">
<mask id="path-1-outside-1_203_206" maskUnits="userSpaceOnUse" x="2" y="0" width="23" height="26" fill="black">
<rect fill="white" x="2" width="23" height="26"/>
<path fill-rule="evenodd" clip-rule="evenodd" d="M17.9359 20.8157H15.0627H15.0567H11.9425H11.9374H9.06331V21.9827H17.9359V20.8157ZM17.9359 22.3244H9.06331V23.4913H11.0132H11.0191H15.981H15.986H17.9359V22.3244ZM15.7714 23.8331H11.2286V25H15.7714V23.8331ZM17.619 7.43494C17.717 7.30017 17.8073 7.16817 17.889 7.03894C18.453 6.15266 18.6234 5.45801 18.2665 5.16771C17.9096 4.87596 17.0577 5.01495 15.9716 5.47471C15.814 5.54144 15.6513 5.61641 15.4861 5.69561C15.613 6.14853 15.716 6.65139 15.7877 7.18904C16.1036 7.21674 16.4111 7.25149 16.7059 7.29041C17.0245 7.3321 17.3294 7.38073 17.619 7.43494ZM11.0285 12.6333C11.1861 12.5667 11.3479 12.4931 11.5141 12.4125C11.3863 11.9595 11.284 11.4581 11.2125 10.9204C10.9629 10.8982 10.7202 10.8718 10.4851 10.8426C10.0966 10.7954 9.72777 10.7384 9.38111 10.6732C9.28322 10.8093 9.19281 10.9413 9.1111 11.0691C8.54715 11.9553 8.37683 12.65 8.73283 12.9418C9.09063 13.232 9.94244 13.0932 11.0285 12.6333ZM11.5592 7.86271C11.6376 7.79608 11.7169 7.73087 11.7969 7.66554C11.877 7.60017 11.9579 7.5349 12.038 7.47234C11.888 7.48069 11.7407 7.48904 11.5951 7.50021C11.5813 7.61968 11.5694 7.74052 11.5592 7.86271ZM15.2033 10.4425C15.1223 10.5091 15.0422 10.573 14.9622 10.637C15.1112 10.6287 15.2594 10.6189 15.4051 10.6078C15.4187 10.4884 15.4307 10.3689 15.441 10.2466C15.3626 10.312 15.2833 10.3772 15.2033 10.4425ZM13.17 6.63751C12.7314 6.35269 12.302 6.10132 11.8898 5.88458C11.8591 6.0026 11.8292 6.12354 11.8012 6.24714C11.7364 6.53467 11.6818 6.83749 11.6376 7.1557C11.9221 7.13483 12.2143 7.11954 12.5116 7.10843C12.7313 6.9445 12.9511 6.78756 13.17 6.63751ZM13.8387 7.09314C13.7254 7.01259 13.612 6.93333 13.4996 6.85695C13.3873 6.93339 13.2747 7.01259 13.1615 7.09314C13.2731 7.09179 13.3864 7.09038 13.4996 7.09038C13.6138 7.09038 13.7262 7.09179 13.8387 7.09314ZM16.1948 9.05468C16.101 8.96301 16.004 8.86993 15.906 8.77826C15.9077 8.86993 15.9086 8.96165 15.9086 9.05468C15.9086 9.1464 15.9077 9.23953 15.906 9.32979C16.004 9.23807 16.101 9.1464 16.1948 9.05468ZM17.3857 10.3675C17.1215 10.0314 16.8124 9.68129 16.464 9.32421C16.28 9.50202 16.0874 9.68129 15.8865 9.8604C15.8728 10.1035 15.854 10.3411 15.8293 10.573C16.3857 10.5217 16.9078 10.4522 17.3857 10.3675ZM15.4852 12.4124C15.6513 12.493 15.8132 12.5666 15.9716 12.6332C17.0578 13.0931 17.9096 13.232 18.2665 12.9417C18.6233 12.6499 18.453 11.9553 17.889 11.069C17.8073 10.9412 17.717 10.8092 17.619 10.6744C17.0628 10.7773 16.447 10.8605 15.7877 10.9203C15.7272 11.3677 15.6462 11.79 15.5474 12.1803C15.5277 12.2597 15.5065 12.336 15.4852 12.4124ZM13.8301 11.4706C14.2688 11.7553 14.6981 12.0068 15.1095 12.2235L15.1385 12.1124C15.2296 11.7526 15.3047 11.365 15.3626 10.9538C15.0772 10.9733 14.7858 10.9899 14.4885 11.001C14.2689 11.165 14.0491 11.3205 13.8301 11.4706ZM13.1614 11.0163C13.2747 11.0969 13.3872 11.1747 13.4996 11.251C13.6119 11.1747 13.7254 11.0969 13.8386 11.0163C13.7261 11.0176 13.6137 11.0176 13.4996 11.0176C13.3863 11.0176 13.2739 11.0176 13.1614 11.0163ZM11.526 9.72151C11.7083 9.88132 11.8974 10.0424 12.0933 10.2022C12.2892 10.3605 12.4852 10.5162 12.6819 10.6648C12.9502 10.6731 13.2237 10.6772 13.4996 10.6772C13.7766 10.6772 14.0499 10.6731 14.3174 10.6648C14.5142 10.5161 14.711 10.3605 14.9069 10.2022C15.1029 10.0424 15.2919 9.88132 15.4742 9.72151C15.4844 9.50343 15.4895 9.27976 15.4895 9.05468C15.4895 8.82824 15.4844 8.60598 15.4742 8.38795C15.2919 8.22678 15.1028 8.06708 14.9069 7.90727C14.711 7.74746 14.5151 7.59318 14.3183 7.44464C14.05 7.43635 13.7766 7.43212 13.4997 7.43212C13.2238 7.43212 12.9503 7.43635 12.682 7.44464C12.4852 7.59323 12.2893 7.74751 12.0934 7.90727C11.8974 8.06702 11.7084 8.22678 11.526 8.38795C11.5158 8.60603 11.5107 8.82824 11.5107 9.05468C11.5106 9.27976 11.5157 9.50202 11.526 9.72151ZM10.8053 9.05468C10.899 9.1464 10.9952 9.23807 11.094 9.32979C11.0923 9.23953 11.0915 9.14635 11.0915 9.05468C11.0915 8.96165 11.0923 8.86993 11.094 8.77826C10.9953 8.86993 10.899 8.96301 10.8053 9.05468ZM9.61356 7.74188C9.87858 8.07808 10.1877 8.42817 10.5361 8.78525C10.7202 8.60734 10.9126 8.42682 11.1137 8.24755C11.1272 8.00582 11.146 7.76822 11.1707 7.53626C10.6145 7.58775 10.0923 7.65715 9.61356 7.74188ZM9.11104 7.03894C9.19275 7.16817 9.28315 7.30017 9.38105 7.43494C9.93649 7.33074 10.5523 7.24732 11.2125 7.18904C11.2593 6.8389 11.3189 6.50274 11.3906 6.18594C11.4289 6.01784 11.4697 5.85401 11.5141 5.69561C11.3479 5.61505 11.1861 5.54144 11.0285 5.47471C9.94244 5.01495 9.09063 4.87596 8.73283 5.16771C8.37677 5.45801 8.54709 6.15266 9.11104 7.03894ZM13.1691 11.4706C12.9511 11.3205 12.7313 11.165 12.5115 11.001C12.2142 10.9899 11.9221 10.9746 11.6375 10.9538C11.7015 11.408 11.7867 11.8331 11.8905 12.2235C12.302 12.0068 12.7313 11.7553 13.1691 11.4706ZM15.8865 8.24755C16.0875 8.42817 16.28 8.60734 16.464 8.78525C16.8124 8.42817 17.1215 8.07673 17.3865 7.74188C17.148 7.69888 16.8984 7.65996 16.6386 7.62662C16.3779 7.59188 16.1079 7.5613 15.8293 7.53631C15.854 7.76828 15.8728 8.00582 15.8865 8.24755ZM14.9613 7.47234C15.0423 7.5349 15.1224 7.60017 15.2033 7.66554C15.2833 7.73087 15.3626 7.79608 15.4401 7.86271C15.4298 7.74052 15.4187 7.61968 15.4051 7.50021C15.2595 7.49045 15.1113 7.48069 14.9613 7.47234ZM13.8301 6.63751C14.0491 6.78756 14.2688 6.9445 14.4885 7.10843C14.7858 7.11954 15.0772 7.13483 15.3617 7.1557C15.2987 6.70142 15.2135 6.27485 15.1095 5.88589C14.6982 6.10126 14.2689 6.35405 13.8301 6.63751ZM11.1137 9.8604C10.9126 9.68124 10.7202 9.50202 10.5362 9.32421C10.1878 9.68129 9.87865 10.0314 9.61363 10.3675C9.90833 10.4189 10.2201 10.4647 10.5473 10.5051C10.7492 10.5301 10.9579 10.5523 11.1708 10.5731C11.146 10.3411 11.1265 10.1035 11.1137 9.8604ZM11.7969 10.4425C11.7168 10.3772 11.6375 10.3119 11.5601 10.2466C11.5703 10.3689 11.5813 10.4897 11.5949 10.6078C11.7406 10.6189 11.8878 10.6286 12.0379 10.637C11.9578 10.573 11.8769 10.5078 11.7969 10.4425ZM12.8002 3.70491C12.7594 3.67157 12.7024 3.65206 12.6402 3.65206C12.578 3.65206 12.521 3.67157 12.4799 3.70491C12.4391 3.73825 12.4144 3.78547 12.4144 3.83545C12.4144 3.88689 12.4391 3.93265 12.4799 3.96599C12.4911 3.97444 12.5022 3.98279 12.5141 3.98962L12.5711 4.0119C12.5839 4.01472 12.5967 4.01743 12.6103 4.01889H12.6112H12.6146L12.6258 4.0202H12.6265H12.6283H12.6317H12.6343H12.6359H12.6376H12.6402C12.7024 4.0202 12.7594 3.99943 12.8002 3.96599C12.8411 3.93265 12.8667 3.88689 12.8667 3.83545V3.83409V3.83133L12.8658 3.82846V3.8271V3.82575V3.82439V3.82303V3.82157V3.81881L12.8651 3.8174V3.81609V3.81468V3.81322L12.8642 3.81181V3.81051V3.80915V3.8078V3.80634H12.8634V3.80488V3.80352L12.8625 3.80216V3.80086C12.8539 3.7646 12.8319 3.73131 12.8002 3.70491ZM13.227 3.61736L13.2312 3.62571L13.2329 3.62848L13.2355 3.63401L13.2372 3.63677L13.2448 3.65206L13.2457 3.65493V3.65628L13.2474 3.65905L13.249 3.66181L13.2551 3.67841L13.2559 3.67992L13.2568 3.68122L13.2593 3.68821L13.2602 3.69098L13.2611 3.69234V3.69364L13.2627 3.69792L13.2635 3.70068L13.2687 3.71728L13.2696 3.72015L13.2703 3.72427L13.2712 3.72708L13.2721 3.72985L13.273 3.73402L13.2737 3.73684L13.2746 3.73961V3.74237V3.74383L13.2755 3.7466L13.2763 3.74936V3.75077L13.2772 3.75354L13.2779 3.7563L13.2788 3.76048V3.76324L13.2797 3.76747V3.76882L13.2805 3.77018V3.7743L13.2814 3.77571V3.77712V3.78119V3.7827L13.2822 3.78401V3.78813L13.2831 3.78948V3.79095V3.79366V3.79507V3.79783L13.284 3.8007V3.80201V3.80477V3.80764L13.2849 3.809V3.81171V3.81458V3.81599V3.8187V3.82147V3.82293V3.82569V3.82846V3.83263V3.8354C13.2849 3.98122 13.2124 4.11328 13.0966 4.20776C12.98 4.30225 12.818 4.36194 12.6401 4.36194H12.6375H12.6359H12.6342H12.6316H12.629H12.6274H12.6257H12.624H12.6231H12.6215H12.6206H12.6189H12.6173H12.6156H12.6147H12.613H12.6105H12.6088H12.6071L12.6063 4.36058H12.6046H12.602H12.5986H12.596H12.5943H12.5917H12.591H12.5901H12.5875H12.5858L12.573 4.35922H12.5705H12.5688C12.5475 4.35636 12.5262 4.35364 12.5048 4.35088C12.3107 4.67044 12.1377 5.07051 11.9921 5.5345C12.4751 5.7818 12.9828 6.07773 13.4998 6.41666C14.0177 6.07773 14.5254 5.7818 15.0083 5.5345C14.9598 5.38173 14.9095 5.2358 14.8558 5.09827C14.4863 4.14672 14.0049 3.55768 13.4998 3.55768C13.4291 3.55768 13.3601 3.56884 13.2936 3.59107L13.227 3.61736ZM19.7026 8.29763C19.7435 8.26419 19.769 8.21843 19.769 8.16699C19.769 8.11695 19.7435 8.06974 19.7026 8.0364C19.6617 8.00306 19.6047 7.98224 19.5424 7.98224C19.4802 7.98224 19.4232 8.00306 19.3822 8.0364C19.3661 8.05033 19.3516 8.06562 19.3406 8.08362L19.3243 8.11696L19.321 8.13094L19.3159 8.16699C19.3159 8.21843 19.3413 8.26419 19.3822 8.29763C19.4232 8.33097 19.4802 8.35174 19.5424 8.35174H19.545H19.5458H19.5484H19.5501H19.551H19.5534H19.5544H19.5569H19.5594H19.5612L19.5629 8.35033H19.5645H19.5655H19.5679H19.5722H19.5738L19.5798 8.34903H19.5823H19.585C19.6302 8.34203 19.671 8.32263 19.7026 8.29763ZM19.9258 8.5907C19.8474 8.63786 19.7563 8.6712 19.6566 8.68518H19.6541L19.6294 8.68795L19.6251 8.68936H19.6242H19.6192H19.6166L19.614 8.69076H19.609H19.6081H19.6038H19.6005H19.5987L19.5936 8.69207H19.5919H19.5885H19.5843H19.5834H19.5782H19.5758H19.5732L19.568 8.69348H19.5672H19.563H19.5588H19.5578H19.5528H19.5511H19.5477H19.5425C19.3645 8.69348 19.2027 8.63374 19.0859 8.5393C18.97 8.44476 18.8977 8.31287 18.8977 8.16694C18.8977 8.14748 18.8986 8.12802 18.9012 8.10861C18.5834 8.00442 18.2189 7.90857 17.8169 7.82379C17.5136 8.21838 17.1507 8.63238 16.735 9.05463C17.1507 9.47557 17.5136 9.88962 17.8169 10.2841C18.0034 10.2451 18.1822 10.2035 18.3517 10.1591C19.5187 9.85894 20.2411 9.46586 20.2411 9.05457C20.2411 8.96567 20.2052 8.87677 20.138 8.79063C20.0851 8.7227 20.0135 8.65591 19.9258 8.5907ZM13.7569 14.7727C13.8208 14.8241 13.9076 14.8561 14.0031 14.8561C14.0994 14.8561 14.1862 14.8241 14.2492 14.7741C14.3123 14.7214 14.3506 14.6505 14.3506 14.5727C14.3506 14.4949 14.3123 14.424 14.2502 14.3726C14.234 14.3601 14.2169 14.3476 14.1982 14.338L14.182 14.3296L14.1803 14.3282H14.1786L14.1761 14.3268H14.1751L14.1727 14.3255H14.1718L14.1692 14.3241L14.1684 14.3228H14.1658L14.1649 14.3214L14.1615 14.32H14.1606L14.1581 14.3186H14.1572L14.1538 14.3173L14.1503 14.3159L14.1469 14.3146H14.146L14.1426 14.3132L14.1392 14.3117H14.1383L14.1357 14.3104H14.1349H14.1314L14.1306 14.309L14.1264 14.3077C14.1093 14.3035 14.0914 14.2994 14.0736 14.2951H14.0719L14.0642 14.2938H14.0574H14.0566L14.0531 14.2925H14.0514H14.0498H14.0472H14.0456H14.0429L14.0422 14.2911H14.0388H14.0378H14.0345H14.031H14.0301H14.0267H14.0258H14.0223H14.0207L14.019 14.2898H14.0164H14.0148H14.0122H14.0114H14.0079H14.0071H14.0029C13.9074 14.2898 13.8205 14.3216 13.7575 14.3717C13.6945 14.4244 13.6562 14.4953 13.6562 14.5731C13.6595 14.6119 13.6595 14.6203 13.6697 14.6509L13.6707 14.6536L13.6716 14.6578L13.6732 14.6606C13.6896 14.7032 13.7194 14.7421 13.7569 14.7727ZM14.1359 13.9572C14.2033 13.9669 14.2662 13.9836 14.3259 14.0058L14.3276 14.0072C14.59 13.66 14.8217 13.1695 15.0082 12.575C14.5253 12.3277 14.0176 12.0318 13.4996 11.6929C12.9826 12.0305 12.475 12.3277 11.9919 12.5736C12.0371 12.7194 12.0857 12.8583 12.1368 12.9904C12.4434 13.7892 12.8293 14.3365 13.2425 14.5004L13.2433 14.4934L13.2442 14.4879L13.2449 14.4851L13.2458 14.481V14.4781L13.2467 14.474L13.2475 14.4698L13.2484 14.4671L13.2492 14.4628L13.2501 14.4601L13.2509 14.4545L13.2526 14.4475L13.2543 14.4407L13.2552 14.4392L13.2559 14.4351L13.2568 14.4323L13.2576 14.4281L13.2593 14.4239L13.2602 14.4211L13.2618 14.4171V14.4156L13.2635 14.4102L13.2644 14.4088L13.266 14.4032V14.4019L13.2687 14.3963V14.395L13.2712 14.3894V14.3879L13.2729 14.3837L13.2746 14.3809L13.2755 14.3768L13.2771 14.3726L13.2779 14.3713L13.2805 14.3657H13.2814L13.2839 14.3587L13.2865 14.3533V14.3518L13.2891 14.3463L13.2907 14.345L13.2924 14.3408L13.2942 14.338L13.295 14.3338L13.2976 14.331L13.301 14.3227H13.3019L13.3053 14.3172L13.3079 14.3102H13.3088L13.3113 14.3046L13.3129 14.3033L13.3155 14.2992L13.3172 14.2963L13.319 14.2935L13.3206 14.2895L13.3223 14.2879L13.3248 14.2825L13.3256 14.2812L13.3299 14.2756L13.3334 14.27L13.3342 14.2687L13.3375 14.2645L13.3384 14.2631L13.341 14.259L13.3436 14.2562L13.3453 14.2534L13.3479 14.2493L13.3495 14.2478L13.3529 14.2437L13.3538 14.2423L13.3581 14.2368L13.3623 14.2312H13.3632L13.3665 14.2271L13.3683 14.2242L13.3708 14.2215L13.3734 14.2187L13.3751 14.2159L13.3785 14.2118L13.3802 14.2104L13.3836 14.2062L13.3845 14.2049L13.3895 14.2007L13.3938 14.1952L13.3947 14.1938L13.399 14.1896L13.4007 14.1882L13.4041 14.1855L13.4066 14.1827L13.4092 14.1799L13.4119 14.1771L13.4135 14.1743L13.4178 14.1715L13.4185 14.1701L13.4237 14.1646L13.4288 14.1604L13.4297 14.1591L13.4339 14.1549L13.4365 14.1536L13.4399 14.1507L13.4425 14.148L13.445 14.1466L13.4485 14.1424L13.4501 14.1411L13.4552 14.1368H13.4561L13.4613 14.1327C13.6009 14.0188 13.7926 13.948 14.003 13.948H14.008H14.0123H14.0132H14.0166L14.0208 13.9493H14.0234H14.0251H14.0293H14.0327H14.0336H14.0378H14.0421H14.0429H14.0464H14.0506H14.0523H14.0549L14.0599 13.9507H14.0615H14.0633H14.0675H14.0717H14.0726H14.0769L14.0802 13.952H14.0812H14.0846H14.0897H14.0905L14.0941 13.9535H14.0983H14.0999H14.1025L14.1059 13.9548H14.1101H14.1144L14.1186 13.9562H14.1195H14.1229H14.1272H14.1289L14.1313 13.9575L14.1359 13.9572ZM14.3344 8.37396C14.1214 8.20033 13.8259 8.09202 13.4996 8.09202C13.1743 8.09202 12.8787 8.20033 12.6649 8.37396C12.4519 8.54765 12.3199 8.78802 12.3199 9.05468C12.3199 9.32009 12.4519 9.5604 12.6649 9.7355C12.8787 9.90903 13.1743 10.0161 13.4996 10.0161C13.8259 10.0161 14.1214 9.90903 14.3344 9.7355C14.5474 9.56045 14.6794 9.32009 14.6794 9.05468C14.6794 8.78802 14.5474 8.54765 14.3344 8.37396ZM13.4996 7.75022C13.9409 7.75022 14.3403 7.89756 14.6291 8.13224C14.9188 8.36989 15.0986 8.69483 15.0986 9.05468C15.0986 9.41306 14.9188 9.73957 14.6308 9.97576C14.3403 10.2118 13.9409 10.3577 13.4996 10.3577C13.0593 10.3577 12.6597 10.2118 12.3702 9.97576C12.0806 9.73957 11.9017 9.41306 11.9017 9.05468C11.9017 8.69489 12.0805 8.36989 12.3693 8.1337C12.6597 7.89756 13.0593 7.75022 13.4996 7.75022ZM9.97475 13.4487C10.083 13.4154 10.2039 13.4599 10.2448 13.5475C10.2865 13.635 10.232 13.7335 10.1248 13.7683C9.65963 13.9128 9.23549 13.9642 8.87507 13.9433C8.46366 13.9197 8.12979 13.8002 7.90655 13.6114C7.69189 13.4294 7.54031 13.164 7.49943 12.8375C7.4636 12.5597 7.50787 12.2345 7.66214 11.8845C7.7004 11.7955 7.82056 11.7484 7.92959 11.7804C8.03778 11.8123 8.09486 11.9096 8.05647 11.9984C7.92447 12.3 7.88614 12.5722 7.91513 12.8029C7.94578 13.05 8.0548 13.2459 8.20651 13.3752C8.35898 13.5029 8.59834 13.5864 8.90501 13.6044C9.2065 13.621 9.57018 13.5751 9.97475 13.4487ZM18.8712 5.06634C18.7902 4.99966 18.7902 4.8913 18.8712 4.82462C18.953 4.75799 19.0858 4.75799 19.1676 4.82462C19.447 5.05236 19.5424 5.39832 19.4751 5.82902C19.4105 6.23879 19.1941 6.73612 18.8491 7.28353C18.7963 7.36821 18.6702 7.40014 18.568 7.35855C18.4657 7.31551 18.4249 7.21268 18.4777 7.12925C18.8014 6.61523 19.0025 6.15688 19.0612 5.78587C19.1114 5.46364 19.0535 5.21498 18.8712 5.06634ZM7.8793 4.66622C7.96286 4.6023 8.09563 4.60653 8.174 4.67451C8.25238 4.74401 8.24733 4.85097 8.163 4.91488C7.97476 5.05794 7.90489 5.30519 7.94149 5.62898C7.98327 6.00125 8.163 6.46659 8.46276 6.989C8.51139 7.07368 8.46622 7.17506 8.36224 7.21539C8.2575 7.25567 8.13305 7.2182 8.08539 7.13342C7.76521 6.575 7.57096 6.0721 7.52579 5.65945C7.47723 5.2274 7.58881 4.88576 7.8793 4.66622ZM14.8473 18.5387H12.152V20.474H14.8473V18.5387ZM11.9425 18.1971H15.0567C15.1727 18.1971 15.2662 18.2735 15.2662 18.3679V20.474H17.9359V17.4315C17.9368 17.369 17.9801 17.3079 18.0552 17.2787C19.8431 16.5758 21.3492 15.4714 22.3986 14.1099C23.4122 12.793 24 11.2328 24 9.56171C24 7.19728 22.8244 5.05648 20.9241 3.50754C19.0246 1.95854 16.3992 1 13.4996 1C10.6009 1 7.9747 1.95849 6.0751 3.50754C4.17556 5.05648 3 7.19728 3 9.56171C3 11.2328 3.58698 12.793 4.6015 14.1099C5.64756 15.4685 7.15014 16.5702 8.93381 17.2745C9.00879 17.2995 9.06324 17.3606 9.06324 17.4315V20.474H11.7329V18.3679C11.733 18.2735 11.8275 18.1971 11.9425 18.1971ZM7.82395 9.72564C7.7473 9.66324 7.64083 9.62431 7.52329 9.62431C7.40665 9.62431 7.30012 9.66324 7.2234 9.72564C7.14765 9.78814 7.09992 9.87569 7.09992 9.97018C7.09992 10.0661 7.14765 10.1522 7.2243 10.2148C7.30102 10.2772 7.40665 10.3161 7.52329 10.3161C7.64083 10.3161 7.74653 10.2772 7.82318 10.2148C7.89977 10.1522 7.94744 10.0661 7.94744 9.97018C7.94744 9.87433 7.89971 9.78814 7.82395 9.72564ZM8.20555 10.3966C8.18258 10.4216 8.15878 10.4439 8.13146 10.4661C7.97642 10.5939 7.76093 10.6718 7.52329 10.6718C7.28649 10.6718 7.07093 10.5939 6.91513 10.4661C6.7601 10.3397 6.66387 10.1647 6.66387 9.97018C6.66387 9.87997 6.68511 9.79378 6.72261 9.71463C6.62209 9.63272 6.54038 9.54647 6.47896 9.46038C6.38791 9.32984 6.34024 9.19372 6.34024 9.05473C6.34024 8.47544 7.17407 7.97118 8.52175 7.62381C8.66143 7.58781 8.80795 7.55301 8.9578 7.51967C8.87942 7.40994 8.80712 7.30158 8.73974 7.19467C8.08897 6.17222 7.9356 5.33451 8.43736 4.9261C8.93822 4.51763 9.96553 4.64128 11.2202 5.17194C11.3505 5.2275 11.4835 5.2873 11.6189 5.35126C11.7697 4.89422 11.9477 4.4955 12.1461 4.17458C12.0525 4.08286 11.9953 3.96479 11.9953 3.83555C11.9953 3.69108 12.0678 3.55919 12.1845 3.4647C12.3004 3.36886 12.4622 3.31047 12.6402 3.31047C12.745 3.31047 12.8438 3.33129 12.9307 3.36599C12.998 3.32994 13.067 3.30072 13.1369 3.27714C13.2561 3.23686 13.3779 3.21604 13.4997 3.21604C14.2093 3.21604 14.8286 3.8967 15.2545 4.99549C15.2987 5.10954 15.3413 5.22751 15.3814 5.35121C15.5168 5.28724 15.6496 5.2275 15.7799 5.17189C17.0339 4.64123 18.062 4.51757 18.5629 4.92604C19.0638 5.33446 18.9112 6.17222 18.2604 7.19462C18.1923 7.30158 18.1199 7.40994 18.0416 7.52102C18.424 7.60445 18.7724 7.69753 19.0799 7.80031L19.0858 7.79614C19.2027 7.70029 19.3644 7.64196 19.5425 7.64196C19.7204 7.64196 19.8824 7.70029 19.999 7.79614C20.1149 7.89068 20.1873 8.02257 20.1873 8.16704C20.1873 8.21567 20.1797 8.26424 20.1643 8.30875C20.3006 8.40459 20.4096 8.50466 20.4906 8.60739C20.6013 8.7505 20.6601 8.8992 20.6601 9.05473C20.6601 9.63272 19.8254 10.1369 18.4777 10.4856C18.3381 10.5218 18.1924 10.5551 18.0417 10.5884C18.1201 10.6996 18.1933 10.808 18.2605 10.9135C18.9114 11.936 19.0639 12.7736 18.563 13.1821C18.0622 13.5918 17.034 13.4669 15.7801 12.9362C15.6497 12.8806 15.5169 12.8209 15.3806 12.757C15.1804 13.3668 14.9299 13.8711 14.6455 14.2322C14.7238 14.3309 14.7698 14.4475 14.7698 14.5726C14.7698 14.7449 14.6838 14.9005 14.5449 15.013C14.4052 15.1268 14.2144 15.1977 14.0032 15.1977C13.7928 15.1977 13.6011 15.1268 13.4632 15.0143C13.4138 14.974 13.3711 14.9283 13.3362 14.8795C12.6914 14.7823 12.1309 14.1169 11.7374 13.0916C11.6964 12.9846 11.6565 12.8721 11.6189 12.7582C11.4835 12.8208 11.3506 12.8804 11.2202 12.936C9.9656 13.4667 8.93822 13.5917 8.43742 13.1819C7.93567 12.7735 8.08904 11.9358 8.73981 10.9134C8.80795 10.8078 8.88038 10.6981 8.95876 10.5883C8.69022 10.53 8.43806 10.4647 8.20555 10.3966ZM20.4352 18.957C20.5136 18.957 20.5962 18.9153 20.6226 18.8612C20.6925 18.7472 20.586 18.6152 20.4352 18.6152H20.0161C19.9377 18.6152 19.855 18.6568 19.8278 18.711C19.7589 18.825 19.8645 18.957 20.0161 18.957H20.4352ZM22.109 18.957C22.1883 18.957 22.2709 18.9153 22.2972 18.8612C22.3671 18.7472 22.2606 18.6152 22.109 18.6152H21.6908C21.6115 18.6152 21.5288 18.6568 21.5025 18.711C21.4327 18.825 21.5392 18.957 21.6908 18.957H22.109ZM5.21657 22.2327C5.29572 22.2327 5.37838 22.1896 5.40475 22.1355C5.47455 22.0215 5.36815 21.8909 5.21657 21.8909H4.79748C4.7191 21.8909 4.63644 21.9326 4.61007 21.9868C4.54027 22.1007 4.64578 22.2327 4.79748 22.2327H5.21657ZM6.89114 22.2327C6.96952 22.2327 7.05302 22.1896 7.07861 22.1355C7.14842 22.0215 7.04278 21.8909 6.89114 21.8909H6.47211C6.39373 21.8909 6.31024 21.9326 6.28471 21.9868C6.21477 22.1007 6.32041 22.2327 6.47211 22.2327H6.89114ZM8.56507 22.2327C8.64422 22.2327 8.72682 22.1896 8.75331 22.1355C8.82311 22.0215 8.71658 21.8909 8.56507 21.8909H8.14681C8.06754 21.8909 7.98493 21.9326 7.95851 21.9868C7.8887 22.1007 7.99511 22.2327 8.14681 22.2327H8.56507ZM5.21657 21.1407C5.29572 21.1407 5.37838 21.0991 5.40475 21.0449C5.47455 20.931 5.36815 20.799 5.21657 20.799H4.79748C4.7191 20.799 4.63644 20.8407 4.61007 20.8948C4.54027 21.0088 4.64578 21.1407 4.79748 21.1407H5.21657ZM6.89114 21.1407C6.96952 21.1407 7.05302 21.0991 7.07861 21.0449C7.14842 20.931 7.04278 20.799 6.89114 20.799H6.47211C6.39373 20.799 6.31024 20.8407 6.28471 20.8948C6.21477 21.0088 6.32041 21.1407 6.47211 21.1407H6.89114ZM8.56507 21.1407C8.64422 21.1407 8.72682 21.0991 8.75331 21.0449C8.82311 20.931 8.71658 20.799 8.56507 20.799H8.14681C8.06754 20.799 7.98493 20.8407 7.95851 20.8948C7.8887 21.0088 7.99511 21.1407 8.14681 21.1407H8.56507ZM5.21657 20.0488C5.29572 20.0488 5.37838 20.0072 5.40475 19.9531C5.47455 19.8391 5.36815 19.7072 5.21657 19.7072H4.79748C4.7191 19.7072 4.63644 19.7488 4.61007 19.803C4.54027 19.9169 4.64578 20.0488 4.79748 20.0488H5.21657ZM6.89114 20.0488C6.96952 20.0488 7.05302 20.0072 7.07861 19.9531C7.14842 19.8391 7.04278 19.7072 6.89114 19.7072H6.47211C6.39373 19.7072 6.31024 19.7488 6.28471 19.803C6.21477 19.9169 6.32041 20.0488 6.47211 20.0488H6.89114ZM8.56507 20.0488C8.64422 20.0488 8.72682 20.0072 8.75331 19.9531C8.82311 19.8391 8.71658 19.7072 8.56507 19.7072H8.14681C8.06754 19.7072 7.98493 19.7488 7.95851 19.803C7.8887 19.9169 7.99511 20.0488 8.14681 20.0488H8.56507ZM5.21657 18.957C5.29572 18.957 5.37838 18.9153 5.40475 18.8612C5.47455 18.7472 5.36815 18.6152 5.21657 18.6152H4.79748C4.7191 18.6152 4.63644 18.6568 4.61007 18.711C4.54027 18.825 4.64578 18.957 4.79748 18.957H5.21657ZM6.89114 18.957C6.96952 18.957 7.05302 18.9153 7.07861 18.8612C7.14842 18.7472 7.04278 18.6152 6.89114 18.6152H6.47211C6.39373 18.6152 6.31024 18.6568 6.28471 18.711C6.21477 18.825 6.32041 18.957 6.47211 18.957H6.89114ZM8.56507 18.957C8.64422 18.957 8.72682 18.9153 8.75331 18.8612C8.82311 18.7472 8.71658 18.6152 8.56507 18.6152H8.14681C8.06754 18.6152 7.98493 18.6568 7.95851 18.711C7.8887 18.825 7.99511 18.957 8.14681 18.957H8.56507ZM18.7605 22.2327C18.8398 22.2327 18.9222 22.1896 18.9488 22.1355C19.0186 22.0215 18.9121 21.8909 18.7605 21.8909H18.3423C18.2631 21.8909 18.1804 21.9326 18.154 21.9868C18.0842 22.1007 18.1906 22.2327 18.3423 22.2327H18.7605ZM20.4352 22.2327C20.5136 22.2327 20.5962 22.1896 20.6226 22.1355C20.6925 22.0215 20.586 21.8909 20.4352 21.8909H20.0161C19.9377 21.8909 19.855 21.9326 19.8278 21.9868C19.7589 22.1007 19.8645 22.2327 20.0161 22.2327H20.4352ZM22.109 22.2327C22.1883 22.2327 22.2709 22.1896 22.2972 22.1355C22.3671 22.0215 22.2606 21.8909 22.109 21.8909H21.6908C21.6115 21.8909 21.5288 21.9326 21.5025 21.9868C21.4327 22.1007 21.5392 22.2327 21.6908 22.2327H22.109ZM18.7605 21.1407C18.8398 21.1407 18.9222 21.0991 18.9488 21.0449C19.0186 20.931 18.9121 20.799 18.7605 20.799H18.3423C18.2631 20.799 18.1804 20.8407 18.154 20.8948C18.0842 21.0088 18.1906 21.1407 18.3423 21.1407H18.7605ZM20.4352 21.1407C20.5136 21.1407 20.5962 21.0991 20.6226 21.0449C20.6925 20.931 20.586 20.799 20.4352 20.799H20.0161C19.9377 20.799 19.855 20.8407 19.8278 20.8948C19.7589 21.0088 19.8645 21.1407 20.0161 21.1407H20.4352ZM22.109 21.1407C22.1883 21.1407 22.2709 21.0991 22.2972 21.0449C22.3671 20.931 22.2606 20.799 22.109 20.799H21.6908C21.6115 20.799 21.5288 20.8407 21.5025 20.8948C21.4327 21.0088 21.5392 21.1407 21.6908 21.1407H22.109ZM18.7605 20.0488C18.8398 20.0488 18.9222 20.0072 18.9488 19.9531C19.0186 19.8391 18.9121 19.7072 18.7605 19.7072H18.3423C18.2631 19.7072 18.1804 19.7488 18.154 19.803C18.0842 19.9169 18.1906 20.0488 18.3423 20.0488H18.7605ZM20.4352 20.0488C20.5136 20.0488 20.5962 20.0072 20.6226 19.9531C20.6925 19.8391 20.586 19.7072 20.4352 19.7072H20.0161C19.9377 19.7072 19.855 19.7488 19.8278 19.803C19.7589 19.9169 19.8645 20.0488 20.0161 20.0488H20.4352ZM22.109 20.0488C22.1883 20.0488 22.2709 20.0072 22.2972 19.9531C22.3671 19.8391 22.2606 19.7072 22.109 19.7072H21.6908C21.6115 19.7072 21.5288 19.7488 21.5025 19.803C21.4327 19.9169 21.5392 20.0488 21.6908 20.0488H22.109ZM18.3423 18.6152C18.2631 18.6152 18.1804 18.6568 18.154 18.711C18.0842 18.825 18.1906 18.957 18.3423 18.957H18.7605C18.8398 18.957 18.9222 18.9153 18.9488 18.8612C19.0186 18.7472 18.9121 18.6152 18.7605 18.6152H18.3423ZM7.52323 9.26859C7.76003 9.26859 7.97559 9.34784 8.13139 9.47421C8.28642 9.60204 8.38355 9.77708 8.38355 9.97012C8.38355 10.009 8.38009 10.0466 8.37242 10.0841C8.62035 10.1563 8.89126 10.2231 9.1834 10.2841C9.48579 9.89098 9.84953 9.47562 10.2652 9.05468C9.84953 8.63243 9.48668 8.21848 9.1834 7.8253C8.99676 7.86412 8.81793 7.90586 8.64761 7.9489C7.48062 8.25031 6.75914 8.64209 6.75914 9.05463C6.75914 9.13383 6.78717 9.21297 6.84168 9.29082C6.87585 9.33804 6.9184 9.38666 6.97035 9.43388C7.12122 9.33115 7.31375 9.26859 7.52323 9.26859Z"/>
</mask>
<path fill-rule="evenodd" clip-rule="evenodd" d="M17.9359 20.8157H15.0627H15.0567H11.9425H11.9374H9.06331V21.9827H17.9359V20.8157ZM17.9359 22.3244H9.06331V23.4913H11.0132H11.0191H15.981H15.986H17.9359V22.3244ZM15.7714 23.8331H11.2286V25H15.7714V23.8331ZM17.619 7.43494C17.717 7.30017 17.8073 7.16817 17.889 7.03894C18.453 6.15266 18.6234 5.45801 18.2665 5.16771C17.9096 4.87596 17.0577 5.01495 15.9716 5.47471C15.814 5.54144 15.6513 5.61641 15.4861 5.69561C15.613 6.14853 15.716 6.65139 15.7877 7.18904C16.1036 7.21674 16.4111 7.25149 16.7059 7.29041C17.0245 7.3321 17.3294 7.38073 17.619 7.43494ZM11.0285 12.6333C11.1861 12.5667 11.3479 12.4931 11.5141 12.4125C11.3863 11.9595 11.284 11.4581 11.2125 10.9204C10.9629 10.8982 10.7202 10.8718 10.4851 10.8426C10.0966 10.7954 9.72777 10.7384 9.38111 10.6732C9.28322 10.8093 9.19281 10.9413 9.1111 11.0691C8.54715 11.9553 8.37683 12.65 8.73283 12.9418C9.09063 13.232 9.94244 13.0932 11.0285 12.6333ZM11.5592 7.86271C11.6376 7.79608 11.7169 7.73087 11.7969 7.66554C11.877 7.60017 11.9579 7.5349 12.038 7.47234C11.888 7.48069 11.7407 7.48904 11.5951 7.50021C11.5813 7.61968 11.5694 7.74052 11.5592 7.86271ZM15.2033 10.4425C15.1223 10.5091 15.0422 10.573 14.9622 10.637C15.1112 10.6287 15.2594 10.6189 15.4051 10.6078C15.4187 10.4884 15.4307 10.3689 15.441 10.2466C15.3626 10.312 15.2833 10.3772 15.2033 10.4425ZM13.17 6.63751C12.7314 6.35269 12.302 6.10132 11.8898 5.88458C11.8591 6.0026 11.8292 6.12354 11.8012 6.24714C11.7364 6.53467 11.6818 6.83749 11.6376 7.1557C11.9221 7.13483 12.2143 7.11954 12.5116 7.10843C12.7313 6.9445 12.9511 6.78756 13.17 6.63751ZM13.8387 7.09314C13.7254 7.01259 13.612 6.93333 13.4996 6.85695C13.3873 6.93339 13.2747 7.01259 13.1615 7.09314C13.2731 7.09179 13.3864 7.09038 13.4996 7.09038C13.6138 7.09038 13.7262 7.09179 13.8387 7.09314ZM16.1948 9.05468C16.101 8.96301 16.004 8.86993 15.906 8.77826C15.9077 8.86993 15.9086 8.96165 15.9086 9.05468C15.9086 9.1464 15.9077 9.23953 15.906 9.32979C16.004 9.23807 16.101 9.1464 16.1948 9.05468ZM17.3857 10.3675C17.1215 10.0314 16.8124 9.68129 16.464 9.32421C16.28 9.50202 16.0874 9.68129 15.8865 9.8604C15.8728 10.1035 15.854 10.3411 15.8293 10.573C16.3857 10.5217 16.9078 10.4522 17.3857 10.3675ZM15.4852 12.4124C15.6513 12.493 15.8132 12.5666 15.9716 12.6332C17.0578 13.0931 17.9096 13.232 18.2665 12.9417C18.6233 12.6499 18.453 11.9553 17.889 11.069C17.8073 10.9412 17.717 10.8092 17.619 10.6744C17.0628 10.7773 16.447 10.8605 15.7877 10.9203C15.7272 11.3677 15.6462 11.79 15.5474 12.1803C15.5277 12.2597 15.5065 12.336 15.4852 12.4124ZM13.8301 11.4706C14.2688 11.7553 14.6981 12.0068 15.1095 12.2235L15.1385 12.1124C15.2296 11.7526 15.3047 11.365 15.3626 10.9538C15.0772 10.9733 14.7858 10.9899 14.4885 11.001C14.2689 11.165 14.0491 11.3205 13.8301 11.4706ZM13.1614 11.0163C13.2747 11.0969 13.3872 11.1747 13.4996 11.251C13.6119 11.1747 13.7254 11.0969 13.8386 11.0163C13.7261 11.0176 13.6137 11.0176 13.4996 11.0176C13.3863 11.0176 13.2739 11.0176 13.1614 11.0163ZM11.526 9.72151C11.7083 9.88132 11.8974 10.0424 12.0933 10.2022C12.2892 10.3605 12.4852 10.5162 12.6819 10.6648C12.9502 10.6731 13.2237 10.6772 13.4996 10.6772C13.7766 10.6772 14.0499 10.6731 14.3174 10.6648C14.5142 10.5161 14.711 10.3605 14.9069 10.2022C15.1029 10.0424 15.2919 9.88132 15.4742 9.72151C15.4844 9.50343 15.4895 9.27976 15.4895 9.05468C15.4895 8.82824 15.4844 8.60598 15.4742 8.38795C15.2919 8.22678 15.1028 8.06708 14.9069 7.90727C14.711 7.74746 14.5151 7.59318 14.3183 7.44464C14.05 7.43635 13.7766 7.43212 13.4997 7.43212C13.2238 7.43212 12.9503 7.43635 12.682 7.44464C12.4852 7.59323 12.2893 7.74751 12.0934 7.90727C11.8974 8.06702 11.7084 8.22678 11.526 8.38795C11.5158 8.60603 11.5107 8.82824 11.5107 9.05468C11.5106 9.27976 11.5157 9.50202 11.526 9.72151ZM10.8053 9.05468C10.899 9.1464 10.9952 9.23807 11.094 9.32979C11.0923 9.23953 11.0915 9.14635 11.0915 9.05468C11.0915 8.96165 11.0923 8.86993 11.094 8.77826C10.9953 8.86993 10.899 8.96301 10.8053 9.05468ZM9.61356 7.74188C9.87858 8.07808 10.1877 8.42817 10.5361 8.78525C10.7202 8.60734 10.9126 8.42682 11.1137 8.24755C11.1272 8.00582 11.146 7.76822 11.1707 7.53626C10.6145 7.58775 10.0923 7.65715 9.61356 7.74188ZM9.11104 7.03894C9.19275 7.16817 9.28315 7.30017 9.38105 7.43494C9.93649 7.33074 10.5523 7.24732 11.2125 7.18904C11.2593 6.8389 11.3189 6.50274 11.3906 6.18594C11.4289 6.01784 11.4697 5.85401 11.5141 5.69561C11.3479 5.61505 11.1861 5.54144 11.0285 5.47471C9.94244 5.01495 9.09063 4.87596 8.73283 5.16771C8.37677 5.45801 8.54709 6.15266 9.11104 7.03894ZM13.1691 11.4706C12.9511 11.3205 12.7313 11.165 12.5115 11.001C12.2142 10.9899 11.9221 10.9746 11.6375 10.9538C11.7015 11.408 11.7867 11.8331 11.8905 12.2235C12.302 12.0068 12.7313 11.7553 13.1691 11.4706ZM15.8865 8.24755C16.0875 8.42817 16.28 8.60734 16.464 8.78525C16.8124 8.42817 17.1215 8.07673 17.3865 7.74188C17.148 7.69888 16.8984 7.65996 16.6386 7.62662C16.3779 7.59188 16.1079 7.5613 15.8293 7.53631C15.854 7.76828 15.8728 8.00582 15.8865 8.24755ZM14.9613 7.47234C15.0423 7.5349 15.1224 7.60017 15.2033 7.66554C15.2833 7.73087 15.3626 7.79608 15.4401 7.86271C15.4298 7.74052 15.4187 7.61968 15.4051 7.50021C15.2595 7.49045 15.1113 7.48069 14.9613 7.47234ZM13.8301 6.63751C14.0491 6.78756 14.2688 6.9445 14.4885 7.10843C14.7858 7.11954 15.0772 7.13483 15.3617 7.1557C15.2987 6.70142 15.2135 6.27485 15.1095 5.88589C14.6982 6.10126 14.2689 6.35405 13.8301 6.63751ZM11.1137 9.8604C10.9126 9.68124 10.7202 9.50202 10.5362 9.32421C10.1878 9.68129 9.87865 10.0314 9.61363 10.3675C9.90833 10.4189 10.2201 10.4647 10.5473 10.5051C10.7492 10.5301 10.9579 10.5523 11.1708 10.5731C11.146 10.3411 11.1265 10.1035 11.1137 9.8604ZM11.7969 10.4425C11.7168 10.3772 11.6375 10.3119 11.5601 10.2466C11.5703 10.3689 11.5813 10.4897 11.5949 10.6078C11.7406 10.6189 11.8878 10.6286 12.0379 10.637C11.9578 10.573 11.8769 10.5078 11.7969 10.4425ZM12.8002 3.70491C12.7594 3.67157 12.7024 3.65206 12.6402 3.65206C12.578 3.65206 12.521 3.67157 12.4799 3.70491C12.4391 3.73825 12.4144 3.78547 12.4144 3.83545C12.4144 3.88689 12.4391 3.93265 12.4799 3.96599C12.4911 3.97444 12.5022 3.98279 12.5141 3.98962L12.5711 4.0119C12.5839 4.01472 12.5967 4.01743 12.6103 4.01889H12.6112H12.6146L12.6258 4.0202H12.6265H12.6283H12.6317H12.6343H12.6359H12.6376H12.6402C12.7024 4.0202 12.7594 3.99943 12.8002 3.96599C12.8411 3.93265 12.8667 3.88689 12.8667 3.83545V3.83409V3.83133L12.8658 3.82846V3.8271V3.82575V3.82439V3.82303V3.82157V3.81881L12.8651 3.8174V3.81609V3.81468V3.81322L12.8642 3.81181V3.81051V3.80915V3.8078V3.80634H12.8634V3.80488V3.80352L12.8625 3.80216V3.80086C12.8539 3.7646 12.8319 3.73131 12.8002 3.70491ZM13.227 3.61736L13.2312 3.62571L13.2329 3.62848L13.2355 3.63401L13.2372 3.63677L13.2448 3.65206L13.2457 3.65493V3.65628L13.2474 3.65905L13.249 3.66181L13.2551 3.67841L13.2559 3.67992L13.2568 3.68122L13.2593 3.68821L13.2602 3.69098L13.2611 3.69234V3.69364L13.2627 3.69792L13.2635 3.70068L13.2687 3.71728L13.2696 3.72015L13.2703 3.72427L13.2712 3.72708L13.2721 3.72985L13.273 3.73402L13.2737 3.73684L13.2746 3.73961V3.74237V3.74383L13.2755 3.7466L13.2763 3.74936V3.75077L13.2772 3.75354L13.2779 3.7563L13.2788 3.76048V3.76324L13.2797 3.76747V3.76882L13.2805 3.77018V3.7743L13.2814 3.77571V3.77712V3.78119V3.7827L13.2822 3.78401V3.78813L13.2831 3.78948V3.79095V3.79366V3.79507V3.79783L13.284 3.8007V3.80201V3.80477V3.80764L13.2849 3.809V3.81171V3.81458V3.81599V3.8187V3.82147V3.82293V3.82569V3.82846V3.83263V3.8354C13.2849 3.98122 13.2124 4.11328 13.0966 4.20776C12.98 4.30225 12.818 4.36194 12.6401 4.36194H12.6375H12.6359H12.6342H12.6316H12.629H12.6274H12.6257H12.624H12.6231H12.6215H12.6206H12.6189H12.6173H12.6156H12.6147H12.613H12.6105H12.6088H12.6071L12.6063 4.36058H12.6046H12.602H12.5986H12.596H12.5943H12.5917H12.591H12.5901H12.5875H12.5858L12.573 4.35922H12.5705H12.5688C12.5475 4.35636 12.5262 4.35364 12.5048 4.35088C12.3107 4.67044 12.1377 5.07051 11.9921 5.5345C12.4751 5.7818 12.9828 6.07773 13.4998 6.41666C14.0177 6.07773 14.5254 5.7818 15.0083 5.5345C14.9598 5.38173 14.9095 5.2358 14.8558 5.09827C14.4863 4.14672 14.0049 3.55768 13.4998 3.55768C13.4291 3.55768 13.3601 3.56884 13.2936 3.59107L13.227 3.61736ZM19.7026 8.29763C19.7435 8.26419 19.769 8.21843 19.769 8.16699C19.769 8.11695 19.7435 8.06974 19.7026 8.0364C19.6617 8.00306 19.6047 7.98224 19.5424 7.98224C19.4802 7.98224 19.4232 8.00306 19.3822 8.0364C19.3661 8.05033 19.3516 8.06562 19.3406 8.08362L19.3243 8.11696L19.321 8.13094L19.3159 8.16699C19.3159 8.21843 19.3413 8.26419 19.3822 8.29763C19.4232 8.33097 19.4802 8.35174 19.5424 8.35174H19.545H19.5458H19.5484H19.5501H19.551H19.5534H19.5544H19.5569H19.5594H19.5612L19.5629 8.35033H19.5645H19.5655H19.5679H19.5722H19.5738L19.5798 8.34903H19.5823H19.585C19.6302 8.34203 19.671 8.32263 19.7026 8.29763ZM19.9258 8.5907C19.8474 8.63786 19.7563 8.6712 19.6566 8.68518H19.6541L19.6294 8.68795L19.6251 8.68936H19.6242H19.6192H19.6166L19.614 8.69076H19.609H19.6081H19.6038H19.6005H19.5987L19.5936 8.69207H19.5919H19.5885H19.5843H19.5834H19.5782H19.5758H19.5732L19.568 8.69348H19.5672H19.563H19.5588H19.5578H19.5528H19.5511H19.5477H19.5425C19.3645 8.69348 19.2027 8.63374 19.0859 8.5393C18.97 8.44476 18.8977 8.31287 18.8977 8.16694C18.8977 8.14748 18.8986 8.12802 18.9012 8.10861C18.5834 8.00442 18.2189 7.90857 17.8169 7.82379C17.5136 8.21838 17.1507 8.63238 16.735 9.05463C17.1507 9.47557 17.5136 9.88962 17.8169 10.2841C18.0034 10.2451 18.1822 10.2035 18.3517 10.1591C19.5187 9.85894 20.2411 9.46586 20.2411 9.05457C20.2411 8.96567 20.2052 8.87677 20.138 8.79063C20.0851 8.7227 20.0135 8.65591 19.9258 8.5907ZM13.7569 14.7727C13.8208 14.8241 13.9076 14.8561 14.0031 14.8561C14.0994 14.8561 14.1862 14.8241 14.2492 14.7741C14.3123 14.7214 14.3506 14.6505 14.3506 14.5727C14.3506 14.4949 14.3123 14.424 14.2502 14.3726C14.234 14.3601 14.2169 14.3476 14.1982 14.338L14.182 14.3296L14.1803 14.3282H14.1786L14.1761 14.3268H14.1751L14.1727 14.3255H14.1718L14.1692 14.3241L14.1684 14.3228H14.1658L14.1649 14.3214L14.1615 14.32H14.1606L14.1581 14.3186H14.1572L14.1538 14.3173L14.1503 14.3159L14.1469 14.3146H14.146L14.1426 14.3132L14.1392 14.3117H14.1383L14.1357 14.3104H14.1349H14.1314L14.1306 14.309L14.1264 14.3077C14.1093 14.3035 14.0914 14.2994 14.0736 14.2951H14.0719L14.0642 14.2938H14.0574H14.0566L14.0531 14.2925H14.0514H14.0498H14.0472H14.0456H14.0429L14.0422 14.2911H14.0388H14.0378H14.0345H14.031H14.0301H14.0267H14.0258H14.0223H14.0207L14.019 14.2898H14.0164H14.0148H14.0122H14.0114H14.0079H14.0071H14.0029C13.9074 14.2898 13.8205 14.3216 13.7575 14.3717C13.6945 14.4244 13.6562 14.4953 13.6562 14.5731C13.6595 14.6119 13.6595 14.6203 13.6697 14.6509L13.6707 14.6536L13.6716 14.6578L13.6732 14.6606C13.6896 14.7032 13.7194 14.7421 13.7569 14.7727ZM14.1359 13.9572C14.2033 13.9669 14.2662 13.9836 14.3259 14.0058L14.3276 14.0072C14.59 13.66 14.8217 13.1695 15.0082 12.575C14.5253 12.3277 14.0176 12.0318 13.4996 11.6929C12.9826 12.0305 12.475 12.3277 11.9919 12.5736C12.0371 12.7194 12.0857 12.8583 12.1368 12.9904C12.4434 13.7892 12.8293 14.3365 13.2425 14.5004L13.2433 14.4934L13.2442 14.4879L13.2449 14.4851L13.2458 14.481V14.4781L13.2467 14.474L13.2475 14.4698L13.2484 14.4671L13.2492 14.4628L13.2501 14.4601L13.2509 14.4545L13.2526 14.4475L13.2543 14.4407L13.2552 14.4392L13.2559 14.4351L13.2568 14.4323L13.2576 14.4281L13.2593 14.4239L13.2602 14.4211L13.2618 14.4171V14.4156L13.2635 14.4102L13.2644 14.4088L13.266 14.4032V14.4019L13.2687 14.3963V14.395L13.2712 14.3894V14.3879L13.2729 14.3837L13.2746 14.3809L13.2755 14.3768L13.2771 14.3726L13.2779 14.3713L13.2805 14.3657H13.2814L13.2839 14.3587L13.2865 14.3533V14.3518L13.2891 14.3463L13.2907 14.345L13.2924 14.3408L13.2942 14.338L13.295 14.3338L13.2976 14.331L13.301 14.3227H13.3019L13.3053 14.3172L13.3079 14.3102H13.3088L13.3113 14.3046L13.3129 14.3033L13.3155 14.2992L13.3172 14.2963L13.319 14.2935L13.3206 14.2895L13.3223 14.2879L13.3248 14.2825L13.3256 14.2812L13.3299 14.2756L13.3334 14.27L13.3342 14.2687L13.3375 14.2645L13.3384 14.2631L13.341 14.259L13.3436 14.2562L13.3453 14.2534L13.3479 14.2493L13.3495 14.2478L13.3529 14.2437L13.3538 14.2423L13.3581 14.2368L13.3623 14.2312H13.3632L13.3665 14.2271L13.3683 14.2242L13.3708 14.2215L13.3734 14.2187L13.3751 14.2159L13.3785 14.2118L13.3802 14.2104L13.3836 14.2062L13.3845 14.2049L13.3895 14.2007L13.3938 14.1952L13.3947 14.1938L13.399 14.1896L13.4007 14.1882L13.4041 14.1855L13.4066 14.1827L13.4092 14.1799L13.4119 14.1771L13.4135 14.1743L13.4178 14.1715L13.4185 14.1701L13.4237 14.1646L13.4288 14.1604L13.4297 14.1591L13.4339 14.1549L13.4365 14.1536L13.4399 14.1507L13.4425 14.148L13.445 14.1466L13.4485 14.1424L13.4501 14.1411L13.4552 14.1368H13.4561L13.4613 14.1327C13.6009 14.0188 13.7926 13.948 14.003 13.948H14.008H14.0123H14.0132H14.0166L14.0208 13.9493H14.0234H14.0251H14.0293H14.0327H14.0336H14.0378H14.0421H14.0429H14.0464H14.0506H14.0523H14.0549L14.0599 13.9507H14.0615H14.0633H14.0675H14.0717H14.0726H14.0769L14.0802 13.952H14.0812H14.0846H14.0897H14.0905L14.0941 13.9535H14.0983H14.0999H14.1025L14.1059 13.9548H14.1101H14.1144L14.1186 13.9562H14.1195H14.1229H14.1272H14.1289L14.1313 13.9575L14.1359 13.9572ZM14.3344 8.37396C14.1214 8.20033 13.8259 8.09202 13.4996 8.09202C13.1743 8.09202 12.8787 8.20033 12.6649 8.37396C12.4519 8.54765 12.3199 8.78802 12.3199 9.05468C12.3199 9.32009 12.4519 9.5604 12.6649 9.7355C12.8787 9.90903 13.1743 10.0161 13.4996 10.0161C13.8259 10.0161 14.1214 9.90903 14.3344 9.7355C14.5474 9.56045 14.6794 9.32009 14.6794 9.05468C14.6794 8.78802 14.5474 8.54765 14.3344 8.37396ZM13.4996 7.75022C13.9409 7.75022 14.3403 7.89756 14.6291 8.13224C14.9188 8.36989 15.0986 8.69483 15.0986 9.05468C15.0986 9.41306 14.9188 9.73957 14.6308 9.97576C14.3403 10.2118 13.9409 10.3577 13.4996 10.3577C13.0593 10.3577 12.6597 10.2118 12.3702 9.97576C12.0806 9.73957 11.9017 9.41306 11.9017 9.05468C11.9017 8.69489 12.0805 8.36989 12.3693 8.1337C12.6597 7.89756 13.0593 7.75022 13.4996 7.75022ZM9.97475 13.4487C10.083 13.4154 10.2039 13.4599 10.2448 13.5475C10.2865 13.635 10.232 13.7335 10.1248 13.7683C9.65963 13.9128 9.23549 13.9642 8.87507 13.9433C8.46366 13.9197 8.12979 13.8002 7.90655 13.6114C7.69189 13.4294 7.54031 13.164 7.49943 12.8375C7.4636 12.5597 7.50787 12.2345 7.66214 11.8845C7.7004 11.7955 7.82056 11.7484 7.92959 11.7804C8.03778 11.8123 8.09486 11.9096 8.05647 11.9984C7.92447 12.3 7.88614 12.5722 7.91513 12.8029C7.94578 13.05 8.0548 13.2459 8.20651 13.3752C8.35898 13.5029 8.59834 13.5864 8.90501 13.6044C9.2065 13.621 9.57018 13.5751 9.97475 13.4487ZM18.8712 5.06634C18.7902 4.99966 18.7902 4.8913 18.8712 4.82462C18.953 4.75799 19.0858 4.75799 19.1676 4.82462C19.447 5.05236 19.5424 5.39832 19.4751 5.82902C19.4105 6.23879 19.1941 6.73612 18.8491 7.28353C18.7963 7.36821 18.6702 7.40014 18.568 7.35855C18.4657 7.31551 18.4249 7.21268 18.4777 7.12925C18.8014 6.61523 19.0025 6.15688 19.0612 5.78587C19.1114 5.46364 19.0535 5.21498 18.8712 5.06634ZM7.8793 4.66622C7.96286 4.6023 8.09563 4.60653 8.174 4.67451C8.25238 4.74401 8.24733 4.85097 8.163 4.91488C7.97476 5.05794 7.90489 5.30519 7.94149 5.62898C7.98327 6.00125 8.163 6.46659 8.46276 6.989C8.51139 7.07368 8.46622 7.17506 8.36224 7.21539C8.2575 7.25567 8.13305 7.2182 8.08539 7.13342C7.76521 6.575 7.57096 6.0721 7.52579 5.65945C7.47723 5.2274 7.58881 4.88576 7.8793 4.66622ZM14.8473 18.5387H12.152V20.474H14.8473V18.5387ZM11.9425 18.1971H15.0567C15.1727 18.1971 15.2662 18.2735 15.2662 18.3679V20.474H17.9359V17.4315C17.9368 17.369 17.9801 17.3079 18.0552 17.2787C19.8431 16.5758 21.3492 15.4714 22.3986 14.1099C23.4122 12.793 24 11.2328 24 9.56171C24 7.19728 22.8244 5.05648 20.9241 3.50754C19.0246 1.95854 16.3992 1 13.4996 1C10.6009 1 7.9747 1.95849 6.0751 3.50754C4.17556 5.05648 3 7.19728 3 9.56171C3 11.2328 3.58698 12.793 4.6015 14.1099C5.64756 15.4685 7.15014 16.5702 8.93381 17.2745C9.00879 17.2995 9.06324 17.3606 9.06324 17.4315V20.474H11.7329V18.3679C11.733 18.2735 11.8275 18.1971 11.9425 18.1971ZM7.82395 9.72564C7.7473 9.66324 7.64083 9.62431 7.52329 9.62431C7.40665 9.62431 7.30012 9.66324 7.2234 9.72564C7.14765 9.78814 7.09992 9.87569 7.09992 9.97018C7.09992 10.0661 7.14765 10.1522 7.2243 10.2148C7.30102 10.2772 7.40665 10.3161 7.52329 10.3161C7.64083 10.3161 7.74653 10.2772 7.82318 10.2148C7.89977 10.1522 7.94744 10.0661 7.94744 9.97018C7.94744 9.87433 7.89971 9.78814 7.82395 9.72564ZM8.20555 10.3966C8.18258 10.4216 8.15878 10.4439 8.13146 10.4661C7.97642 10.5939 7.76093 10.6718 7.52329 10.6718C7.28649 10.6718 7.07093 10.5939 6.91513 10.4661C6.7601 10.3397 6.66387 10.1647 6.66387 9.97018C6.66387 9.87997 6.68511 9.79378 6.72261 9.71463C6.62209 9.63272 6.54038 9.54647 6.47896 9.46038C6.38791 9.32984 6.34024 9.19372 6.34024 9.05473C6.34024 8.47544 7.17407 7.97118 8.52175 7.62381C8.66143 7.58781 8.80795 7.55301 8.9578 7.51967C8.87942 7.40994 8.80712 7.30158 8.73974 7.19467C8.08897 6.17222 7.9356 5.33451 8.43736 4.9261C8.93822 4.51763 9.96553 4.64128 11.2202 5.17194C11.3505 5.2275 11.4835 5.2873 11.6189 5.35126C11.7697 4.89422 11.9477 4.4955 12.1461 4.17458C12.0525 4.08286 11.9953 3.96479 11.9953 3.83555C11.9953 3.69108 12.0678 3.55919 12.1845 3.4647C12.3004 3.36886 12.4622 3.31047 12.6402 3.31047C12.745 3.31047 12.8438 3.33129 12.9307 3.36599C12.998 3.32994 13.067 3.30072 13.1369 3.27714C13.2561 3.23686 13.3779 3.21604 13.4997 3.21604C14.2093 3.21604 14.8286 3.8967 15.2545 4.99549C15.2987 5.10954 15.3413 5.22751 15.3814 5.35121C15.5168 5.28724 15.6496 5.2275 15.7799 5.17189C17.0339 4.64123 18.062 4.51757 18.5629 4.92604C19.0638 5.33446 18.9112 6.17222 18.2604 7.19462C18.1923 7.30158 18.1199 7.40994 18.0416 7.52102C18.424 7.60445 18.7724 7.69753 19.0799 7.80031L19.0858 7.79614C19.2027 7.70029 19.3644 7.64196 19.5425 7.64196C19.7204 7.64196 19.8824 7.70029 19.999 7.79614C20.1149 7.89068 20.1873 8.02257 20.1873 8.16704C20.1873 8.21567 20.1797 8.26424 20.1643 8.30875C20.3006 8.40459 20.4096 8.50466 20.4906 8.60739C20.6013 8.7505 20.6601 8.8992 20.6601 9.05473C20.6601 9.63272 19.8254 10.1369 18.4777 10.4856C18.3381 10.5218 18.1924 10.5551 18.0417 10.5884C18.1201 10.6996 18.1933 10.808 18.2605 10.9135C18.9114 11.936 19.0639 12.7736 18.563 13.1821C18.0622 13.5918 17.034 13.4669 15.7801 12.9362C15.6497 12.8806 15.5169 12.8209 15.3806 12.757C15.1804 13.3668 14.9299 13.8711 14.6455 14.2322C14.7238 14.3309 14.7698 14.4475 14.7698 14.5726C14.7698 14.7449 14.6838 14.9005 14.5449 15.013C14.4052 15.1268 14.2144 15.1977 14.0032 15.1977C13.7928 15.1977 13.6011 15.1268 13.4632 15.0143C13.4138 14.974 13.3711 14.9283 13.3362 14.8795C12.6914 14.7823 12.1309 14.1169 11.7374 13.0916C11.6964 12.9846 11.6565 12.8721 11.6189 12.7582C11.4835 12.8208 11.3506 12.8804 11.2202 12.936C9.9656 13.4667 8.93822 13.5917 8.43742 13.1819C7.93567 12.7735 8.08904 11.9358 8.73981 10.9134C8.80795 10.8078 8.88038 10.6981 8.95876 10.5883C8.69022 10.53 8.43806 10.4647 8.20555 10.3966ZM20.4352 18.957C20.5136 18.957 20.5962 18.9153 20.6226 18.8612C20.6925 18.7472 20.586 18.6152 20.4352 18.6152H20.0161C19.9377 18.6152 19.855 18.6568 19.8278 18.711C19.7589 18.825 19.8645 18.957 20.0161 18.957H20.4352ZM22.109 18.957C22.1883 18.957 22.2709 18.9153 22.2972 18.8612C22.3671 18.7472 22.2606 18.6152 22.109 18.6152H21.6908C21.6115 18.6152 21.5288 18.6568 21.5025 18.711C21.4327 18.825 21.5392 18.957 21.6908 18.957H22.109ZM5.21657 22.2327C5.29572 22.2327 5.37838 22.1896 5.40475 22.1355C5.47455 22.0215 5.36815 21.8909 5.21657 21.8909H4.79748C4.7191 21.8909 4.63644 21.9326 4.61007 21.9868C4.54027 22.1007 4.64578 22.2327 4.79748 22.2327H5.21657ZM6.89114 22.2327C6.96952 22.2327 7.05302 22.1896 7.07861 22.1355C7.14842 22.0215 7.04278 21.8909 6.89114 21.8909H6.47211C6.39373 21.8909 6.31024 21.9326 6.28471 21.9868C6.21477 22.1007 6.32041 22.2327 6.47211 22.2327H6.89114ZM8.56507 22.2327C8.64422 22.2327 8.72682 22.1896 8.75331 22.1355C8.82311 22.0215 8.71658 21.8909 8.56507 21.8909H8.14681C8.06754 21.8909 7.98493 21.9326 7.95851 21.9868C7.8887 22.1007 7.99511 22.2327 8.14681 22.2327H8.56507ZM5.21657 21.1407C5.29572 21.1407 5.37838 21.0991 5.40475 21.0449C5.47455 20.931 5.36815 20.799 5.21657 20.799H4.79748C4.7191 20.799 4.63644 20.8407 4.61007 20.8948C4.54027 21.0088 4.64578 21.1407 4.79748 21.1407H5.21657ZM6.89114 21.1407C6.96952 21.1407 7.05302 21.0991 7.07861 21.0449C7.14842 20.931 7.04278 20.799 6.89114 20.799H6.47211C6.39373 20.799 6.31024 20.8407 6.28471 20.8948C6.21477 21.0088 6.32041 21.1407 6.47211 21.1407H6.89114ZM8.56507 21.1407C8.64422 21.1407 8.72682 21.0991 8.75331 21.0449C8.82311 20.931 8.71658 20.799 8.56507 20.799H8.14681C8.06754 20.799 7.98493 20.8407 7.95851 20.8948C7.8887 21.0088 7.99511 21.1407 8.14681 21.1407H8.56507ZM5.21657 20.0488C5.29572 20.0488 5.37838 20.0072 5.40475 19.9531C5.47455 19.8391 5.36815 19.7072 5.21657 19.7072H4.79748C4.7191 19.7072 4.63644 19.7488 4.61007 19.803C4.54027 19.9169 4.64578 20.0488 4.79748 20.0488H5.21657ZM6.89114 20.0488C6.96952 20.0488 7.05302 20.0072 7.07861 19.9531C7.14842 19.8391 7.04278 19.7072 6.89114 19.7072H6.47211C6.39373 19.7072 6.31024 19.7488 6.28471 19.803C6.21477 19.9169 6.32041 20.0488 6.47211 20.0488H6.89114ZM8.56507 20.0488C8.64422 20.0488 8.72682 20.0072 8.75331 19.9531C8.82311 19.8391 8.71658 19.7072 8.56507 19.7072H8.14681C8.06754 19.7072 7.98493 19.7488 7.95851 19.803C7.8887 19.9169 7.99511 20.0488 8.14681 20.0488H8.56507ZM5.21657 18.957C5.29572 18.957 5.37838 18.9153 5.40475 18.8612C5.47455 18.7472 5.36815 18.6152 5.21657 18.6152H4.79748C4.7191 18.6152 4.63644 18.6568 4.61007 18.711C4.54027 18.825 4.64578 18.957 4.79748 18.957H5.21657ZM6.89114 18.957C6.96952 18.957 7.05302 18.9153 7.07861 18.8612C7.14842 18.7472 7.04278 18.6152 6.89114 18.6152H6.47211C6.39373 18.6152 6.31024 18.6568 6.28471 18.711C6.21477 18.825 6.32041 18.957 6.47211 18.957H6.89114ZM8.56507 18.957C8.64422 18.957 8.72682 18.9153 8.75331 18.8612C8.82311 18.7472 8.71658 18.6152 8.56507 18.6152H8.14681C8.06754 18.6152 7.98493 18.6568 7.95851 18.711C7.8887 18.825 7.99511 18.957 8.14681 18.957H8.56507ZM18.7605 22.2327C18.8398 22.2327 18.9222 22.1896 18.9488 22.1355C19.0186 22.0215 18.9121 21.8909 18.7605 21.8909H18.3423C18.2631 21.8909 18.1804 21.9326 18.154 21.9868C18.0842 22.1007 18.1906 22.2327 18.3423 22.2327H18.7605ZM20.4352 22.2327C20.5136 22.2327 20.5962 22.1896 20.6226 22.1355C20.6925 22.0215 20.586 21.8909 20.4352 21.8909H20.0161C19.9377 21.8909 19.855 21.9326 19.8278 21.9868C19.7589 22.1007 19.8645 22.2327 20.0161 22.2327H20.4352ZM22.109 22.2327C22.1883 22.2327 22.2709 22.1896 22.2972 22.1355C22.3671 22.0215 22.2606 21.8909 22.109 21.8909H21.6908C21.6115 21.8909 21.5288 21.9326 21.5025 21.9868C21.4327 22.1007 21.5392 22.2327 21.6908 22.2327H22.109ZM18.7605 21.1407C18.8398 21.1407 18.9222 21.0991 18.9488 21.0449C19.0186 20.931 18.9121 20.799 18.7605 20.799H18.3423C18.2631 20.799 18.1804 20.8407 18.154 20.8948C18.0842 21.0088 18.1906 21.1407 18.3423 21.1407H18.7605ZM20.4352 21.1407C20.5136 21.1407 20.5962 21.0991 20.6226 21.0449C20.6925 20.931 20.586 20.799 20.4352 20.799H20.0161C19.9377 20.799 19.855 20.8407 19.8278 20.8948C19.7589 21.0088 19.8645 21.1407 20.0161 21.1407H20.4352ZM22.109 21.1407C22.1883 21.1407 22.2709 21.0991 22.2972 21.0449C22.3671 20.931 22.2606 20.799 22.109 20.799H21.6908C21.6115 20.799 21.5288 20.8407 21.5025 20.8948C21.4327 21.0088 21.5392 21.1407 21.6908 21.1407H22.109ZM18.7605 20.0488C18.8398 20.0488 18.9222 20.0072 18.9488 19.9531C19.0186 19.8391 18.9121 19.7072 18.7605 19.7072H18.3423C18.2631 19.7072 18.1804 19.7488 18.154 19.803C18.0842 19.9169 18.1906 20.0488 18.3423 20.0488H18.7605ZM20.4352 20.0488C20.5136 20.0488 20.5962 20.0072 20.6226 19.9531C20.6925 19.8391 20.586 19.7072 20.4352 19.7072H20.0161C19.9377 19.7072 19.855 19.7488 19.8278 19.803C19.7589 19.9169 19.8645 20.0488 20.0161 20.0488H20.4352ZM22.109 20.0488C22.1883 20.0488 22.2709 20.0072 22.2972 19.9531C22.3671 19.8391 22.2606 19.7072 22.109 19.7072H21.6908C21.6115 19.7072 21.5288 19.7488 21.5025 19.803C21.4327 19.9169 21.5392 20.0488 21.6908 20.0488H22.109ZM18.3423 18.6152C18.2631 18.6152 18.1804 18.6568 18.154 18.711C18.0842 18.825 18.1906 18.957 18.3423 18.957H18.7605C18.8398 18.957 18.9222 18.9153 18.9488 18.8612C19.0186 18.7472 18.9121 18.6152 18.7605 18.6152H18.3423ZM7.52323 9.26859C7.76003 9.26859 7.97559 9.34784 8.13139 9.47421C8.28642 9.60204 8.38355 9.77708 8.38355 9.97012C8.38355 10.009 8.38009 10.0466 8.37242 10.0841C8.62035 10.1563 8.89126 10.2231 9.1834 10.2841C9.48579 9.89098 9.84953 9.47562 10.2652 9.05468C9.84953 8.63243 9.48668 8.21848 9.1834 7.8253C8.99676 7.86412 8.81793 7.90586 8.64761 7.9489C7.48062 8.25031 6.75914 8.64209 6.75914 9.05463C6.75914 9.13383 6.78717 9.21297 6.84168 9.29082C6.87585 9.33804 6.9184 9.38666 6.97035 9.43388C7.12122 9.33115 7.31375 9.26859 7.52323 9.26859Z" stroke="#D9D9D9" stroke-width="2" shape-rendering="crispEdges" mask="url(#path-1-outside-1_203_206)"/>
</g>
<defs>
<filter id="filter0_d_203_206" x="-2.38419e-07" y="0" width="27" height="30" filterUnits="userSpaceOnUse" color-interpolation-filters="sRGB">
<feFlood flood-opacity="0" result="BackgroundImageFix"/>
<feColorMatrix in="SourceAlpha" type="matrix" values="0 0 0 0 0 0 0 0 0 0 0 0 0 0 0 0 0 0 127 0" result="hardAlpha"/>
<feOffset dy="2"/>
<feGaussianBlur stdDeviation="1"/>
<feComposite in2="hardAlpha" operator="out"/>
<feColorMatrix type="matrix" values="0 0 0 0 0 0 0 0 0 0 0 0 0 0 0 0 0 0 0.25 0"/>
<feBlend mode="normal" in2="BackgroundImageFix" result="effect1_dropShadow_203_206"/>
<feBlend mode="normal" in="SourceGraphic" in2="effect1_dropShadow_203_206" result="shape"/>
</filter>
</defs>
</svg>
