<svg width="18" height="19" viewBox="0 0 18 19" fill="none" xmlns="http://www.w3.org/2000/svg">
<path d="M13.7461 17.2663C13.0599 17.2663 12.0959 17.0181 10.6524 16.2116C8.897 15.2272 7.53927 14.3184 5.79341 12.5771C4.11013 10.8949 3.29099 9.80577 2.14454 7.7196C0.849386 5.36413 1.07017 4.12944 1.31696 3.60174C1.61087 2.97104 2.0447 2.59381 2.60544 2.2194C2.92394 2.01073 3.26099 1.83184 3.61232 1.68503C3.64747 1.66991 3.68017 1.65549 3.70935 1.64249C3.88337 1.56409 4.14704 1.44561 4.48103 1.57217C4.70392 1.65585 4.9029 1.82706 5.21439 2.13467C5.85318 2.76467 6.7261 4.16776 7.04814 4.85682C7.26435 5.32124 7.40743 5.6278 7.40778 5.97163C7.40778 6.37417 7.20528 6.6846 6.95954 7.01963C6.91349 7.08256 6.86778 7.14268 6.82349 7.20104C6.55595 7.5526 6.49724 7.65421 6.53591 7.83561C6.61431 8.20018 7.19896 9.28546 8.15978 10.2442C9.1206 11.2029 10.1746 11.7506 10.5406 11.8287C10.7297 11.8691 10.8334 11.8079 11.1962 11.5309C11.2483 11.4912 11.3017 11.45 11.3576 11.4089C11.7324 11.1301 12.0284 10.9329 12.4214 10.9329H12.4235C12.7656 10.9329 13.0584 11.0812 13.5436 11.3259C14.1764 11.6451 15.6217 12.5068 16.2556 13.1463C16.5639 13.4571 16.7358 13.6554 16.8198 13.8779C16.9464 14.213 16.8272 14.4756 16.7495 14.6514C16.7365 14.6805 16.7221 14.7125 16.707 14.748C16.559 15.0987 16.379 15.4351 16.1694 15.7528C15.7957 16.3118 15.4171 16.7446 14.785 17.0388C14.4604 17.1924 14.1052 17.2701 13.7461 17.2663Z" fill="black"/>
</svg>
