<svg width="96" height="23" viewBox="0 0 96 23" fill="none" xmlns="http://www.w3.org/2000/svg">
<path d="M19.36 22.5H0.96V1.06H6.976V17.092H19.36V22.5ZM32.512 22.82C25.056 22.82 20.64 18.468 20.64 11.78C20.64 5.092 25.056 0.74 32.512 0.74C40.16 0.74 44.512 5.092 44.512 11.78C44.512 18.468 40.16 22.82 32.512 22.82ZM32.512 17.06C36.864 17.06 38.112 16.036 38.112 11.78C38.112 7.524 36.864 6.5 32.512 6.5C28.16 6.5 27.04 7.524 27.04 11.78C27.04 16.036 28.16 17.06 32.512 17.06ZM56.4843 22.82C49.7323 22.82 45.7963 18.468 45.7963 11.78C45.7963 5.092 50.4043 0.74 58.2123 0.74C65.4763 0.74 69.7963 3.94 69.7963 9.252V9.476H63.0763V9.252C63.0763 7.268 61.8603 6.5 58.0523 6.5C53.4443 6.5 52.1963 7.524 52.1963 11.78C52.1963 16.036 53.3802 17.06 57.7323 17.06C62.1803 17.06 63.4603 16.836 63.7483 15.204H57.1563V10.788H69.8283V22.5H64.2283V17.924H63.9083C63.3323 20.42 61.5083 22.82 56.4843 22.82ZM83.1683 22.82C75.7123 22.82 71.2963 18.468 71.2963 11.78C71.2963 5.092 75.7123 0.74 83.1683 0.74C90.8163 0.74 95.1683 5.092 95.1683 11.78C95.1683 18.468 90.8163 22.82 83.1683 22.82ZM83.1683 17.06C87.5203 17.06 88.7683 16.036 88.7683 11.78C88.7683 7.524 87.5203 6.5 83.1683 6.5C78.8163 6.5 77.6963 7.524 77.6963 11.78C77.6963 16.036 78.8163 17.06 83.1683 17.06Z" fill="black"/>
</svg>
