<svg width="32" height="32" viewBox="0 0 32 32" fill="none" xmlns="http://www.w3.org/2000/svg">
<g id="Send Icon">
<circle id="Oval" cx="16" cy="16" r="16" fill="#0081FE"/>
<g id="send">
<path id="Path" d="M9.69366 16.2186C9.19603 16.4797 9.21667 16.8621 9.73839 17.0685L11.2842 17.6801C11.8063 17.8875 12.5965 17.7743 13.039 17.429L19.7517 12.1352C20.193 11.7881 20.2403 11.8393 19.8571 12.2496L14.5504 17.9296C14.1659 18.3386 14.2795 18.841 14.8033 19.0436L14.9844 19.1141C15.5083 19.3167 16.362 19.6569 16.8825 19.8685L18.5969 20.5666C19.1177 20.7782 19.6743 20.5288 19.8223 19.9868L22.4352 10.3825C22.5827 9.84058 22.2962 9.61047 21.7986 9.87112L9.69366 16.2186Z" fill="white"/>
<path id="Path_2" d="M13.9358 22.506C13.9068 22.5932 14.8904 21.0882 14.9856 20.9423C14.9911 20.934 14.9958 20.9267 15.0011 20.9184C15.2974 20.4513 15.1213 19.8989 14.6064 19.6884L13.4201 19.2028C12.9062 18.9926 13.1001 20.3232 13.3084 20.8378C13.6105 21.5843 13.9536 22.4528 13.9358 22.506Z" fill="white"/>
</g>
</g>
</svg>
