<svg width="82" height="17" viewBox="0 0 82 17" fill="none" xmlns="http://www.w3.org/2000/svg">
<g id="Social">
<g id="facebook">
<path id="Path" d="M7.60104 5.57L7.32638 8.5H5.2446V17H2.11749V8.5H0.559265V5.57H2.11749V3.806C2.11749 1.423 2.99838 0 5.50238 0H7.58327V2.93H6.28104C5.30949 2.93 5.2446 3.343 5.2446 4.106V5.57H7.60104Z" fill="white"/>
</g>
<g id="twitter-alt">
<path id="Path_2" d="M45.6383 5.03817C45.6481 5.18917 45.6481 5.34017 45.6481 5.49217C45.6481 10.0972 42.5317 15.4042 36.8366 15.4042C35.0819 15.4042 33.4517 14.8322 32.0801 13.8402C32.3299 13.8722 32.5699 13.8822 32.8286 13.8822C34.2766 13.8822 35.6081 13.3322 36.673 12.3942C35.3112 12.3622 34.1708 11.3582 33.7779 9.97717C33.969 10.0092 34.161 10.0312 34.361 10.0312C34.6401 10.0312 34.9183 9.98817 35.177 9.91317C33.7583 9.58917 32.6934 8.18717 32.6934 6.49417C32.6934 6.48317 32.6934 6.46117 32.6934 6.45117C33.1059 6.70917 33.585 6.87117 34.0934 6.89317C33.2597 6.26717 32.713 5.19917 32.713 3.99217C32.713 3.34517 32.8668 2.75117 33.1352 2.23317C34.6597 4.34817 36.9512 5.72917 39.521 5.87917C39.4721 5.62017 39.4437 5.35017 39.4437 5.08017C39.4437 3.16117 40.825 1.59717 42.5406 1.59717C43.4321 1.59717 44.2374 2.01717 44.8037 2.69717C45.5032 2.54617 46.1734 2.25517 46.769 1.85617C46.5388 2.66517 46.0499 3.34517 45.4072 3.77517C46.0312 3.70017 46.6348 3.50617 47.1912 3.23617C46.769 3.92617 46.2419 4.54217 45.6383 5.03817Z" fill="white"/>
</g>
<g id="youtube">
<path id="Shape" fill-rule="evenodd" clip-rule="evenodd" d="M70.9572 0C71.1359 0.588 71.3208 1.186 71.5057 1.774C71.7759 2.656 71.9448 3.32 72.0212 3.785V6.356H72.8639V3.785L73.8843 0H73.0239L72.4505 2.495L71.8523 0H70.9572ZM75.0141 6.42194C75.4025 6.42194 75.6976 6.26094 75.9083 5.93794C76.0692 5.70094 76.1439 5.32094 76.1439 4.81794V3.15794C76.1439 2.65494 76.0692 2.28494 75.9083 2.04794C75.6968 1.72694 75.4016 1.56494 75.0141 1.56494C74.6336 1.56494 74.3385 1.72594 74.1296 2.04794C73.9688 2.28594 73.8932 2.65594 73.8932 3.15894V4.81894C73.8932 5.32194 73.9688 5.69194 74.1296 5.93894C74.3385 6.26094 74.6336 6.42194 75.0141 6.42194ZM74.6514 2.98798C74.6514 2.55198 74.7696 2.33398 75.0141 2.33398C75.2674 2.33398 75.3767 2.55198 75.3767 2.98798V4.97998C75.3767 5.41698 75.2674 5.64398 75.0141 5.64398C74.7696 5.64398 74.6514 5.41598 74.6514 4.97998V2.98798ZM76.7687 5.36007C76.7687 5.70107 76.7927 5.92807 76.8354 6.07107C76.911 6.30907 77.0878 6.42207 77.3323 6.42207C77.6123 6.42207 77.8985 6.23207 78.2016 5.83407V6.35607H78.9687V1.62207H78.2016V5.23607C78.0327 5.51107 77.8727 5.64407 77.7216 5.64407C77.6203 5.64407 77.5616 5.56907 77.5447 5.43607C77.5358 5.41607 77.5358 5.30307 77.5358 5.10307V1.62207H76.7687V5.36007ZM79.7537 11.811V12.247H78.9945V11.811C78.9945 11.384 79.1217 11.165 79.3741 11.165C79.6265 11.166 79.7537 11.384 79.7537 11.811ZM81.2203 8.785C81.0683 8.035 80.5199 7.485 79.871 7.4C78.319 7.21 76.7501 7.21 75.1901 7.21C73.6301 7.21 72.0612 7.21 70.5181 7.4C69.8621 7.485 69.3216 8.035 69.1616 8.785C68.951 9.847 68.9421 11.005 68.9421 12.105C68.9421 13.196 68.9421 14.362 69.1616 15.425C69.3136 16.175 69.8621 16.725 70.511 16.801C72.0621 17 73.631 17 75.191 17C76.751 17 78.3199 17 79.8719 16.801C80.5199 16.725 81.0603 16.175 81.2212 15.425C81.4319 14.363 81.4407 13.196 81.4407 12.105L81.4407 12.091C81.4399 10.9952 81.4389 9.8425 81.2203 8.785ZM71.6078 9.74307H72.5092V8.85107H69.8781V9.74307H70.7643V15.1411H71.6078V9.74307ZM74.7865 15.1411H74.0354V14.6291C73.7314 15.0181 73.4452 15.2081 73.175 15.2081C72.9314 15.2081 72.7536 15.0941 72.6861 14.8571C72.6434 14.7151 72.6185 14.4961 72.6185 14.1651V10.4561H73.3696V13.9091C73.3696 14.1091 73.3696 14.2131 73.3776 14.2421C73.3954 14.3741 73.4541 14.4411 73.5545 14.4411C73.7074 14.4411 73.8674 14.3091 74.0354 14.0431V10.4571H74.7865V15.1411ZM77.5776 14.6851C77.6363 14.4861 77.6541 14.1741 77.6541 13.7371V11.8681C77.6541 11.4311 77.6363 11.1191 77.5776 10.9291C77.4852 10.5781 77.2736 10.3981 76.9785 10.3981C76.7003 10.3981 76.4381 10.5681 76.1936 10.9101V8.85107H75.4443V15.1411H76.1936V14.6851C76.447 15.0361 76.7092 15.2071 76.9785 15.2071C77.2736 15.2071 77.4852 15.0271 77.5776 14.6851ZM80.5039 12.959H78.9945V13.784C78.9945 14.221 79.1216 14.438 79.383 14.438C79.5687 14.438 79.6781 14.325 79.7207 14.097C79.7287 14.05 79.7376 13.86 79.7376 13.518H80.5047V13.642C80.5047 13.917 80.5047 14.107 80.4879 14.192C80.4701 14.381 80.4025 14.552 80.311 14.704C80.1074 15.036 79.7963 15.207 79.4007 15.207C79.0043 15.207 78.7083 15.046 78.4896 14.723C78.3296 14.495 78.2452 14.125 78.2452 13.622V11.981C78.2452 11.478 78.3216 11.118 78.4816 10.88C78.7012 10.557 78.9963 10.396 79.3847 10.396C79.7652 10.396 80.0594 10.557 80.2781 10.88C80.431 11.117 80.5065 11.477 80.5065 11.981V12.959H80.5039ZM76.903 13.803V11.801C76.903 11.384 76.7928 11.166 76.5741 11.166C76.447 11.166 76.3208 11.232 76.1936 11.375V14.23C76.3208 14.372 76.447 14.438 76.5741 14.438C76.7928 14.438 76.903 14.23 76.903 13.803Z" fill="white"/>
</g>
</g>
</svg>
